<mxfile host="app.diagrams.net" modified="2024-07-05T09:21:44.184Z" agent="Mozilla/5.0 (Windows NT 10.0; Win64; x64) AppleWebKit/537.36 (KHTML, like Gecko) Chrome/127.0.0.0 Safari/537.36 Edg/127.0.0.0" etag="Qq63IeRk8QCjpMngG1HA" version="24.6.4" type="github">
  <diagram name="第 1 页" id="JpJuvLmKtG-MRXJeiW7m">
    <mxGraphModel dx="1296" dy="719" grid="1" gridSize="10" guides="1" tooltips="1" connect="1" arrows="1" fold="1" page="1" pageScale="1" pageWidth="1169" pageHeight="827" math="0" shadow="0">
      <root>
        <mxCell id="0" />
        <mxCell id="1" parent="0" />
        <mxCell id="MelZ6qpHFA7kS_R9BVZc-9" style="edgeStyle=orthogonalEdgeStyle;rounded=0;orthogonalLoop=1;jettySize=auto;html=1;entryX=0;entryY=0.5;entryDx=0;entryDy=0;dashed=1;" parent="1" source="BcCwPTK8j7OGMrzo-Ye--47" target="MelZ6qpHFA7kS_R9BVZc-7" edge="1">
          <mxGeometry relative="1" as="geometry" />
        </mxCell>
        <mxCell id="BcCwPTK8j7OGMrzo-Ye--47" value="用户（接收端）&lt;div&gt;提示词及&lt;span style=&quot;background-color: initial;&quot;&gt;需求参数&lt;/span&gt;&lt;/div&gt;" style="rounded=1;whiteSpace=wrap;html=1;" parent="1" vertex="1">
          <mxGeometry x="150" y="250" width="130" height="70" as="geometry" />
        </mxCell>
        <mxCell id="BcCwPTK8j7OGMrzo-Ye--63" value="待迭代视频" style="rounded=1;whiteSpace=wrap;html=1;" parent="1" vertex="1">
          <mxGeometry y="800" width="120" height="60" as="geometry" />
        </mxCell>
        <mxCell id="BcCwPTK8j7OGMrzo-Ye--66" value="视频质量综合评价模块" style="rounded=0;whiteSpace=wrap;html=1;" parent="1" vertex="1">
          <mxGeometry x="280" y="820" width="240" height="60" as="geometry" />
        </mxCell>
        <mxCell id="BcCwPTK8j7OGMrzo-Ye--71" value="表征指导模块" style="rounded=0;whiteSpace=wrap;html=1;" parent="1" vertex="1">
          <mxGeometry x="820" y="800" width="90" height="30" as="geometry" />
        </mxCell>
        <mxCell id="MelZ6qpHFA7kS_R9BVZc-10" style="edgeStyle=orthogonalEdgeStyle;rounded=0;orthogonalLoop=1;jettySize=auto;html=1;entryX=0;entryY=0.5;entryDx=0;entryDy=0;dashed=1;" parent="1" source="BcCwPTK8j7OGMrzo-Ye--100" target="MelZ6qpHFA7kS_R9BVZc-8" edge="1">
          <mxGeometry relative="1" as="geometry" />
        </mxCell>
        <mxCell id="BcCwPTK8j7OGMrzo-Ye--100" value="服务（发送端）&lt;div&gt;提示词及&lt;span style=&quot;background-color: initial;&quot;&gt;需求参数&lt;/span&gt;&lt;/div&gt;" style="rounded=1;whiteSpace=wrap;html=1;" parent="1" vertex="1">
          <mxGeometry x="150" y="360" width="130" height="70" as="geometry" />
        </mxCell>
        <mxCell id="MelZ6qpHFA7kS_R9BVZc-6" style="edgeStyle=orthogonalEdgeStyle;rounded=0;orthogonalLoop=1;jettySize=auto;html=1;entryX=0;entryY=0.5;entryDx=0;entryDy=0;" parent="1" source="MelZ6qpHFA7kS_R9BVZc-1" target="MelZ6qpHFA7kS_R9BVZc-5" edge="1">
          <mxGeometry relative="1" as="geometry" />
        </mxCell>
        <mxCell id="MelZ6qpHFA7kS_R9BVZc-1" value="待迭代视频" style="rounded=1;whiteSpace=wrap;html=1;" parent="1" vertex="1">
          <mxGeometry x="150" y="470" width="130" height="70" as="geometry" />
        </mxCell>
        <mxCell id="MelZ6qpHFA7kS_R9BVZc-4" style="edgeStyle=orthogonalEdgeStyle;rounded=0;orthogonalLoop=1;jettySize=auto;html=1;entryX=0;entryY=0.5;entryDx=0;entryDy=0;" parent="1" source="MelZ6qpHFA7kS_R9BVZc-2" target="MelZ6qpHFA7kS_R9BVZc-3" edge="1">
          <mxGeometry relative="1" as="geometry" />
        </mxCell>
        <mxCell id="MelZ6qpHFA7kS_R9BVZc-2" value="原始语义信息&lt;div&gt;视频&lt;/div&gt;" style="rounded=1;whiteSpace=wrap;html=1;" parent="1" vertex="1">
          <mxGeometry x="150" y="140" width="130" height="70" as="geometry" />
        </mxCell>
        <mxCell id="MelZ6qpHFA7kS_R9BVZc-12" style="edgeStyle=orthogonalEdgeStyle;rounded=0;orthogonalLoop=1;jettySize=auto;html=1;entryX=0;entryY=0.5;entryDx=0;entryDy=0;" parent="1" source="MelZ6qpHFA7kS_R9BVZc-3" target="MelZ6qpHFA7kS_R9BVZc-11" edge="1">
          <mxGeometry relative="1" as="geometry" />
        </mxCell>
        <mxCell id="MelZ6qpHFA7kS_R9BVZc-3" value="视频图像堆叠嵌入层" style="rounded=0;whiteSpace=wrap;html=1;" parent="1" vertex="1">
          <mxGeometry x="340" y="145" width="120" height="60" as="geometry" />
        </mxCell>
        <mxCell id="MelZ6qpHFA7kS_R9BVZc-18" style="edgeStyle=orthogonalEdgeStyle;rounded=0;orthogonalLoop=1;jettySize=auto;html=1;entryX=0.75;entryY=1;entryDx=0;entryDy=0;exitX=1.026;exitY=0.358;exitDx=0;exitDy=0;exitPerimeter=0;" parent="1" source="MelZ6qpHFA7kS_R9BVZc-5" target="MelZ6qpHFA7kS_R9BVZc-11" edge="1">
          <mxGeometry relative="1" as="geometry" />
        </mxCell>
        <mxCell id="_TXsIc2Zqww3pUmbI3k1-1" style="edgeStyle=orthogonalEdgeStyle;rounded=0;orthogonalLoop=1;jettySize=auto;html=1;exitX=1;exitY=0.75;exitDx=0;exitDy=0;entryX=0.5;entryY=1;entryDx=0;entryDy=0;" edge="1" parent="1" source="MelZ6qpHFA7kS_R9BVZc-5" target="MelZ6qpHFA7kS_R9BVZc-17">
          <mxGeometry relative="1" as="geometry" />
        </mxCell>
        <mxCell id="MelZ6qpHFA7kS_R9BVZc-5" value="视频图像堆叠嵌入层" style="rounded=0;whiteSpace=wrap;html=1;" parent="1" vertex="1">
          <mxGeometry x="340" y="475" width="120" height="60" as="geometry" />
        </mxCell>
        <mxCell id="MelZ6qpHFA7kS_R9BVZc-13" style="edgeStyle=orthogonalEdgeStyle;rounded=0;orthogonalLoop=1;jettySize=auto;html=1;entryX=0.25;entryY=1;entryDx=0;entryDy=0;dashed=1;exitX=1;exitY=0.25;exitDx=0;exitDy=0;" parent="1" source="MelZ6qpHFA7kS_R9BVZc-7" target="MelZ6qpHFA7kS_R9BVZc-11" edge="1">
          <mxGeometry relative="1" as="geometry" />
        </mxCell>
        <mxCell id="MelZ6qpHFA7kS_R9BVZc-25" style="edgeStyle=orthogonalEdgeStyle;rounded=0;orthogonalLoop=1;jettySize=auto;html=1;entryX=0;entryY=0.75;entryDx=0;entryDy=0;dashed=1;" parent="1" source="MelZ6qpHFA7kS_R9BVZc-7" target="MelZ6qpHFA7kS_R9BVZc-17" edge="1">
          <mxGeometry relative="1" as="geometry">
            <Array as="points">
              <mxPoint x="400" y="340" />
              <mxPoint x="520" y="340" />
              <mxPoint x="520" y="485" />
            </Array>
          </mxGeometry>
        </mxCell>
        <mxCell id="MelZ6qpHFA7kS_R9BVZc-7" value="提示词及需求参数嵌入层" style="rounded=0;whiteSpace=wrap;html=1;" parent="1" vertex="1">
          <mxGeometry x="340" y="255" width="120" height="60" as="geometry" />
        </mxCell>
        <mxCell id="MelZ6qpHFA7kS_R9BVZc-14" style="edgeStyle=orthogonalEdgeStyle;rounded=0;orthogonalLoop=1;jettySize=auto;html=1;dashed=1;entryX=0.5;entryY=1;entryDx=0;entryDy=0;exitX=1;exitY=0.25;exitDx=0;exitDy=0;" parent="1" source="MelZ6qpHFA7kS_R9BVZc-8" target="MelZ6qpHFA7kS_R9BVZc-11" edge="1">
          <mxGeometry relative="1" as="geometry">
            <mxPoint x="610" y="210" as="targetPoint" />
          </mxGeometry>
        </mxCell>
        <mxCell id="MelZ6qpHFA7kS_R9BVZc-21" style="edgeStyle=orthogonalEdgeStyle;rounded=0;orthogonalLoop=1;jettySize=auto;html=1;entryX=0;entryY=0.25;entryDx=0;entryDy=0;strokeColor=none;dashed=1;" parent="1" source="MelZ6qpHFA7kS_R9BVZc-8" target="MelZ6qpHFA7kS_R9BVZc-17" edge="1">
          <mxGeometry relative="1" as="geometry">
            <Array as="points">
              <mxPoint x="400" y="455" />
            </Array>
          </mxGeometry>
        </mxCell>
        <mxCell id="MelZ6qpHFA7kS_R9BVZc-24" style="edgeStyle=orthogonalEdgeStyle;rounded=0;orthogonalLoop=1;jettySize=auto;html=1;entryX=0;entryY=0.25;entryDx=0;entryDy=0;dashed=1;" parent="1" source="MelZ6qpHFA7kS_R9BVZc-8" target="MelZ6qpHFA7kS_R9BVZc-17" edge="1">
          <mxGeometry relative="1" as="geometry" />
        </mxCell>
        <mxCell id="MelZ6qpHFA7kS_R9BVZc-8" value="提示词及需求参数嵌入层" style="rounded=0;whiteSpace=wrap;html=1;" parent="1" vertex="1">
          <mxGeometry x="340" y="365" width="120" height="60" as="geometry" />
        </mxCell>
        <mxCell id="MelZ6qpHFA7kS_R9BVZc-27" style="edgeStyle=orthogonalEdgeStyle;rounded=0;orthogonalLoop=1;jettySize=auto;html=1;entryX=0;entryY=0.5;entryDx=0;entryDy=0;" parent="1" source="MelZ6qpHFA7kS_R9BVZc-11" target="MelZ6qpHFA7kS_R9BVZc-16" edge="1">
          <mxGeometry relative="1" as="geometry" />
        </mxCell>
        <mxCell id="MelZ6qpHFA7kS_R9BVZc-11" value="有参考质量评价模型" style="rounded=0;whiteSpace=wrap;html=1;" parent="1" vertex="1">
          <mxGeometry x="530" y="145" width="120" height="60" as="geometry" />
        </mxCell>
        <mxCell id="MelZ6qpHFA7kS_R9BVZc-31" style="edgeStyle=orthogonalEdgeStyle;rounded=0;orthogonalLoop=1;jettySize=auto;html=1;entryX=0.5;entryY=0;entryDx=0;entryDy=0;" parent="1" source="MelZ6qpHFA7kS_R9BVZc-16" target="MelZ6qpHFA7kS_R9BVZc-30" edge="1">
          <mxGeometry relative="1" as="geometry" />
        </mxCell>
        <mxCell id="MelZ6qpHFA7kS_R9BVZc-16" value="有参考质量评价结果特征向量" style="rounded=1;whiteSpace=wrap;html=1;" parent="1" vertex="1">
          <mxGeometry x="880" y="145" width="120" height="60" as="geometry" />
        </mxCell>
        <mxCell id="MelZ6qpHFA7kS_R9BVZc-29" style="edgeStyle=orthogonalEdgeStyle;rounded=0;orthogonalLoop=1;jettySize=auto;html=1;entryX=0;entryY=0.5;entryDx=0;entryDy=0;" parent="1" source="MelZ6qpHFA7kS_R9BVZc-17" target="MelZ6qpHFA7kS_R9BVZc-28" edge="1">
          <mxGeometry relative="1" as="geometry" />
        </mxCell>
        <mxCell id="MelZ6qpHFA7kS_R9BVZc-17" value="无参考质量评价模型" style="rounded=0;whiteSpace=wrap;html=1;" parent="1" vertex="1">
          <mxGeometry x="710" y="440" width="120" height="60" as="geometry" />
        </mxCell>
        <mxCell id="MelZ6qpHFA7kS_R9BVZc-32" style="edgeStyle=orthogonalEdgeStyle;rounded=0;orthogonalLoop=1;jettySize=auto;html=1;entryX=0.5;entryY=1;entryDx=0;entryDy=0;" parent="1" source="MelZ6qpHFA7kS_R9BVZc-28" target="MelZ6qpHFA7kS_R9BVZc-30" edge="1">
          <mxGeometry relative="1" as="geometry" />
        </mxCell>
        <mxCell id="MelZ6qpHFA7kS_R9BVZc-28" value="无参考质量评价结果特征向量" style="rounded=1;whiteSpace=wrap;html=1;" parent="1" vertex="1">
          <mxGeometry x="880" y="440" width="120" height="60" as="geometry" />
        </mxCell>
        <mxCell id="MelZ6qpHFA7kS_R9BVZc-36" style="edgeStyle=orthogonalEdgeStyle;rounded=0;orthogonalLoop=1;jettySize=auto;html=1;exitX=1;exitY=0.25;exitDx=0;exitDy=0;entryX=0;entryY=0.5;entryDx=0;entryDy=0;" parent="1" source="MelZ6qpHFA7kS_R9BVZc-30" target="MelZ6qpHFA7kS_R9BVZc-33" edge="1">
          <mxGeometry relative="1" as="geometry" />
        </mxCell>
        <mxCell id="MelZ6qpHFA7kS_R9BVZc-37" style="edgeStyle=orthogonalEdgeStyle;rounded=0;orthogonalLoop=1;jettySize=auto;html=1;" parent="1" source="MelZ6qpHFA7kS_R9BVZc-30" target="MelZ6qpHFA7kS_R9BVZc-34" edge="1">
          <mxGeometry relative="1" as="geometry" />
        </mxCell>
        <mxCell id="MelZ6qpHFA7kS_R9BVZc-38" style="edgeStyle=orthogonalEdgeStyle;rounded=0;orthogonalLoop=1;jettySize=auto;html=1;exitX=1;exitY=0.75;exitDx=0;exitDy=0;entryX=0;entryY=0.5;entryDx=0;entryDy=0;" parent="1" source="MelZ6qpHFA7kS_R9BVZc-30" target="MelZ6qpHFA7kS_R9BVZc-35" edge="1">
          <mxGeometry relative="1" as="geometry" />
        </mxCell>
        <mxCell id="MelZ6qpHFA7kS_R9BVZc-30" value="综合评价大语言模型" style="rounded=0;whiteSpace=wrap;html=1;" parent="1" vertex="1">
          <mxGeometry x="880" y="300" width="120" height="60" as="geometry" />
        </mxCell>
        <mxCell id="MelZ6qpHFA7kS_R9BVZc-33" value="语义优化模块" style="rounded=0;whiteSpace=wrap;html=1;" parent="1" vertex="1">
          <mxGeometry x="1090" y="240" width="90" height="30" as="geometry" />
        </mxCell>
        <mxCell id="MelZ6qpHFA7kS_R9BVZc-34" value="表征指导模块" style="rounded=0;whiteSpace=wrap;html=1;" parent="1" vertex="1">
          <mxGeometry x="1090" y="315" width="90" height="30" as="geometry" />
        </mxCell>
        <mxCell id="MelZ6qpHFA7kS_R9BVZc-35" value="多嵌入特征优化模块" style="rounded=0;whiteSpace=wrap;html=1;" parent="1" vertex="1">
          <mxGeometry x="1080" y="390" width="110" height="30" as="geometry" />
        </mxCell>
      </root>
    </mxGraphModel>
  </diagram>
</mxfile>
